<svg width="24" height="28.48" viewBox="0 0 75 89" fill="none" xmlns="http://www.w3.org/2000/svg"><g clip-path="url(#svg_dcf3e36ee8__clip0_886_40219)"><path d="M62.6408 43.0872L52.4705 87.6298C52.3086 88.3327 52.8435 89.0071 53.5544 89.0071H73.881C74.5989 89.0071 75.1267 88.3327 74.9649 87.6298L64.8016 43.0872C64.5412 41.93 62.9083 41.93 62.6408 43.0872zM6.34173 59.9771L.0283816 87.6298C-.133499 88.3327.394373 89 1.11228 89H13.746C14.4569 89 14.9847 88.3327 14.8299 87.6298L8.51656 59.9771C8.24206 58.8198 6.60918 58.8198 6.34173 59.9771z" fill="#00E5E5"/><path d="M20.2214 26.2045L6.19412 87.6227C6.03224 88.3256 6.56715 89 7.27802 89H35.3115C36.0294 89 36.5573 88.3256 36.3954 87.6227L22.3822 26.2045C22.1147 25.0472 20.4818 25.0472 20.2214 26.2045Z" fill="#006EFF"/><path d="M43.7499 0.86615L23.9441 87.6227C23.7822 88.3255 24.3172 89 25.028 89H64.6325C65.3504 89 65.8782 88.3255 65.7164 87.6227L45.9106 0.86615C45.6502 -0.291077 44.0173 -0.291077 43.7499 0.86615Z" fill="#006EFF"/><path d="M30.6445 34.6317L18.5457 87.6227C18.3838 88.3256 18.9187 89 19.6296 89H43.8202C44.5381 89 45.066 88.3256 44.9041 87.6227L32.8123 34.6317C32.5448 33.4744 30.912 33.4744 30.6445 34.6317Z" fill="#00E5E5"/></g><defs><clipPath id="svg_dcf3e36ee8__clip0_886_40219"><path fill="#fff" d="M0 0H75V89H0z"/></clipPath></defs></svg>