<?xml version="1.0" standalone="no"?>
<!DOCTYPE svg PUBLIC "-//W3C//DTD SVG 1.1//EN" "http://www.w3.org/Graphics/SVG/1.1/DTD/svg11.dtd"><svg t="1671510793121"
    class="icon" viewBox="0 0 1028 1024" version="1.1" xmlns="http://www.w3.org/2000/svg" p-id="1360"
    xmlns:xlink="http://www.w3.org/1999/xlink" width="200.78125" height="200">
    <path
        d="M515.863273 1024c-282.321455 0-512-229.678545-512-512 0-282.298182 229.678545-512 512-512s512 229.701818 512 512C1027.863273 794.321455 798.184727 1024 515.863273 1024zM515.863273 44.520727C258.094545 44.520727 48.384 254.231273 48.384 512s209.710545 467.502545 467.479273 467.502545S983.342545 769.768727 983.342545 512 773.632 44.520727 515.863273 44.520727z"
        fill="#414042" p-id="1361"></path>
    <path
        d="M750.126545 531.549091c-4.026182 4.002909-9.565091 6.516364-15.732364 6.516364L298.449455 538.065455c-12.311273 0-22.272-9.960727-22.272-22.272 0-12.288 9.960727-22.248727 22.248727-22.248727l435.968 0c12.334545-0.023273 22.295273 9.937455 22.272 22.248727C756.689455 521.960727 754.176 527.522909 750.126545 531.549091z"
        fill="#414042" p-id="1362"></path>
    <path
        d="M531.595636 751.127273c-4.026182 4.026182-9.611636 6.516364-15.732364 6.493091-12.334545 0.023273-22.295273-9.960727-22.272-22.248727l-0.023273-446.72c0-12.288 9.960727-22.248727 22.272-22.248727 12.311273 0 22.272 9.960727 22.248727 22.248727l0 446.72C538.088727 741.515636 535.621818 747.124364 531.595636 751.127273z"
        fill="#414042" p-id="1363"></path>
</svg>