<?xml version="1.0" standalone="no"?>
<!DOCTYPE svg PUBLIC "-//W3C//DTD SVG 1.1//EN" "http://www.w3.org/Graphics/SVG/1.1/DTD/svg11.dtd"><svg t="1671508792581"
    class="icon" viewBox="0 0 1024 1024" version="1.1" xmlns="http://www.w3.org/2000/svg" p-id="5702"
    xmlns:xlink="http://www.w3.org/1999/xlink" width="200" height="200">
    <path
        d="M512 960C264.533333 960 64 759.466667 64 512S264.533333 64 512 64s448 200.533333 448 448-200.533333 448-448 448z m0-853.333333C288 106.666667 106.666667 288 106.666667 512s181.333333 405.333333 405.333333 405.333333 405.333333-181.333333 405.333333-405.333333S736 106.666667 512 106.666667z"
        fill="#333333" p-id="5703"></path>
    <path
        d="M640 661.333333c-12.8 0-21.333333-8.533333-21.333333-21.333333V384c0-12.8 8.533333-21.333333 21.333333-21.333333s21.333333 8.533333 21.333333 21.333333v256c0 12.8-8.533333 21.333333-21.333333 21.333333zM768 576c-12.8 0-21.333333-8.533333-21.333333-21.333333v-85.333334c0-12.8 8.533333-21.333333 21.333333-21.333333s21.333333 8.533333 21.333333 21.333333v85.333334c0 12.8-8.533333 21.333333-21.333333 21.333333zM384 661.333333c-12.8 0-21.333333-8.533333-21.333333-21.333333V384c0-12.8 8.533333-21.333333 21.333333-21.333333s21.333333 8.533333 21.333333 21.333333v256c0 12.8-8.533333 21.333333-21.333333 21.333333zM256 576c-12.8 0-21.333333-8.533333-21.333333-21.333333v-85.333334c0-12.8 8.533333-21.333333 21.333333-21.333333s21.333333 8.533333 21.333333 21.333333v85.333334c0 12.8-8.533333 21.333333-21.333333 21.333333zM512 746.666667c-12.8 0-21.333333-8.533333-21.333333-21.333334V298.666667c0-12.8 8.533333-21.333333 21.333333-21.333334s21.333333 8.533333 21.333333 21.333334v426.666666c0 12.8-8.533333 21.333333-21.333333 21.333334z"
        fill="#333333" p-id="5704"></path>
</svg>