<?xml version="1.0" standalone="no"?><!DOCTYPE svg PUBLIC "-//W3C//DTD SVG 1.1//EN" "http://www.w3.org/Graphics/SVG/1.1/DTD/svg11.dtd"><svg t="1671517789654" class="icon" viewBox="0 0 1024 1024" version="1.1" xmlns="http://www.w3.org/2000/svg" p-id="6000" xmlns:xlink="http://www.w3.org/1999/xlink" width="200" height="200"><path d="M917.333333 896H106.666667c-36.266667 0-64-27.733333-64-64V192c0-36.266667 27.733333-64 64-64h810.666666c36.266667 0 64 27.733333 64 64v640c0 36.266667-27.733333 64-64 64zM106.666667 170.666667c-12.8 0-21.333333 8.533333-21.333334 21.333333v640c0 12.8 8.533333 21.333333 21.333334 21.333333h810.666666c12.8 0 21.333333-8.533333 21.333334-21.333333V192c0-12.8-8.533333-21.333333-21.333334-21.333333H106.666667z" fill="#333333" p-id="6001"></path><path d="M684.8 467.2c-66.133333 0-121.6-53.333333-121.6-117.333333s53.333333-117.333333 121.6-117.333334c66.133333 0 121.6 53.333333 121.6 117.333334s-55.466667 117.333333-121.6 117.333333z m0-192c-42.666667 0-78.933333 34.133333-78.933333 74.666667s34.133333 74.666667 78.933333 74.666666 78.933333-34.133333 78.933333-74.666666-36.266667-74.666667-78.933333-74.666667zM142.933333 883.2l-17.066666-8.533333H102.4c0-8.533333 0-8.533333 290.133333-490.666667 6.4-10.666667 19.2-19.2 34.133334-19.2 12.8 0 25.6 6.4 34.133333 19.2l213.333333 352-36.266666 21.333333-209.066667-345.6C313.6 595.2 149.333333 870.4 142.933333 883.2z" fill="#333333" p-id="6002"></path><path d="M906.666667 896H548.266667v-21.333333c0-6.4 2.133333-12.8 4.266666-19.2l138.666667-230.4c6.4-10.666667 19.2-19.2 32-19.2s25.6 6.4 34.133333 19.2l140.8 230.4c2.133333 4.266667 4.266667 10.666667 4.266667 17.066666l4.266667 23.466667z m-42.666667-17.066667z m-273.066667-2.133333z m14.933334-23.466667h243.2l-121.6-200.533333-121.6 200.533333z" fill="#333333" p-id="6003"></path></svg>