<?xml version="1.0" standalone="no"?><!DOCTYPE svg PUBLIC "-//W3C//DTD SVG 1.1//EN" "http://www.w3.org/Graphics/SVG/1.1/DTD/svg11.dtd"><svg t="1671705193374" class="icon" viewBox="0 0 1024 1024" version="1.1" xmlns="http://www.w3.org/2000/svg" p-id="5553" xmlns:xlink="http://www.w3.org/1999/xlink" width="200" height="200"><path d="M512 917.333333c-12.8 0-21.333333-8.533333-21.333333-21.333333V300.8c0-12.8 8.533333-21.333333 21.333333-21.333333s21.333333 8.533333 21.333333 21.333333V896c0 12.8-8.533333 21.333333-21.333333 21.333333z" fill="#333333" p-id="5554"></path><path d="M768 576c-6.4 0-10.666667-2.133333-14.933333-6.4L512 328.533333 270.933333 569.6c-8.533333 8.533333-21.333333 8.533333-29.866666 0s-8.533333-21.333333 0-29.866667l256-256c8.533333-8.533333 21.333333-8.533333 29.866666 0l256 256c8.533333 8.533333 8.533333 21.333333 0 29.866667-4.266667 4.266667-8.533333 6.4-14.933333 6.4zM768 149.333333H256c-12.8 0-21.333333-8.533333-21.333333-21.333333s8.533333-21.333333 21.333333-21.333333h512c12.8 0 21.333333 8.533333 21.333333 21.333333s-8.533333 21.333333-21.333333 21.333333z" fill="#333333" p-id="5555"></path></svg>