<?xml version="1.0" standalone="no"?><!DOCTYPE svg PUBLIC "-//W3C//DTD SVG 1.1//EN" "http://www.w3.org/Graphics/SVG/1.1/DTD/svg11.dtd"><svg t="1671614489491" class="icon" viewBox="0 0 1024 1024" version="1.1" xmlns="http://www.w3.org/2000/svg" p-id="5553" xmlns:xlink="http://www.w3.org/1999/xlink" width="200" height="200"><path d="M512 960C264.533333 960 64 759.466667 64 512S264.533333 64 512 64s448 200.533333 448 448-200.533333 448-448 448z m0-853.333333C288 106.666667 106.666667 288 106.666667 512s181.333333 405.333333 405.333333 405.333333 405.333333-181.333333 405.333333-405.333333S736 106.666667 512 106.666667z" fill="#333333" p-id="5554"></path><path d="M362.666667 509.866667m-42.666667 0a42.666667 42.666667 0 1 0 85.333333 0 42.666667 42.666667 0 1 0-85.333333 0Z" fill="#333333" p-id="5555"></path><path d="M467.2 635.733333c-6.4 0-10.666667-2.133333-14.933333-6.4-8.533333-8.533333-8.533333-21.333333 0-29.866666C477.866667 576 490.666667 544 490.666667 509.866667s-12.8-66.133333-38.4-89.6c-8.533333-8.533333-8.533333-21.333333 0-29.866667s21.333333-8.533333 29.866666 0C516.266667 422.4 533.333333 465.066667 533.333333 509.866667c0 44.8-17.066667 87.466667-49.066666 121.6-4.266667 4.266667-10.666667 4.266667-17.066667 4.266666zM573.866667 742.4c-6.4 0-10.666667-2.133333-14.933334-6.4-8.533333-8.533333-8.533333-21.333333 0-29.866667 53.333333-53.333333 81.066667-121.6 81.066667-196.266666 0-74.666667-29.866667-142.933333-81.066667-196.266667-8.533333-8.533333-8.533333-21.333333 0-29.866667 8.533333-8.533333 21.333333-8.533333 29.866667 0C648.533333 343.466667 682.666667 424.533333 682.666667 509.866667s-34.133333 166.4-93.866667 226.133333c-4.266667 4.266667-8.533333 6.4-14.933333 6.4z" fill="#333333" p-id="5556"></path></svg>