<?xml version="1.0" standalone="no"?><!DOCTYPE svg PUBLIC "-//W3C//DTD SVG 1.1//EN" "http://www.w3.org/Graphics/SVG/1.1/DTD/svg11.dtd"><svg t="1671610932416" class="icon" viewBox="0 0 1024 1024" version="1.1" xmlns="http://www.w3.org/2000/svg" p-id="6150" xmlns:xlink="http://www.w3.org/1999/xlink" width="200" height="200"><path d="M714.666667 853.333333H147.2C113.066667 853.333333 85.333333 825.6 85.333333 791.466667V232.533333C85.333333 198.4 113.066667 170.666667 147.2 170.666667h567.466667c34.133333 0 61.866667 27.733333 61.866666 61.866666v138.666667l128-93.866667c6.4-4.266667 14.933333-6.4 21.333334-2.133333 6.4 4.266667 10.666667 10.666667 10.666666 19.2v460.8c0 8.533333-4.266667 14.933333-10.666666 19.2-6.4 4.266667-14.933333 2.133333-21.333334-2.133333l-128-93.866667v117.333333c0 29.866667-27.733333 57.6-61.866666 57.6zM147.2 213.333333c-10.666667 0-19.2 8.533333-19.2 19.2v561.066667c0 8.533333 8.533333 17.066667 19.2 17.066667h567.466667c10.666667 0 19.2-8.533333 19.2-19.2v-160c0-8.533333 4.266667-14.933333 10.666666-19.2 6.4-4.266667 14.933333-2.133333 21.333334 2.133333l128 93.866667V334.933333l-128 93.866667c-6.4 4.266667-14.933333 6.4-21.333334 2.133333-6.4-4.266667-10.666667-10.666667-10.666666-19.2v-179.2c0-10.666667-8.533333-19.2-19.2-19.2H147.2z" fill="#333333" p-id="6151"></path><path d="M341.333333 554.666667c-70.4 0-128-57.6-128-128s57.6-128 128-128 128 57.6 128 128-57.6 128-128 128z m0-213.333334c-46.933333 0-85.333333 38.4-85.333333 85.333334s38.4 85.333333 85.333333 85.333333 85.333333-38.4 85.333334-85.333333-38.4-85.333333-85.333334-85.333334z" fill="#333333" p-id="6152"></path></svg>