<svg width="16" height="16" viewBox="0 0 16 16" fill="none" xmlns="http://www.w3.org/2000/svg">
<path fill-rule="evenodd" clip-rule="evenodd" d="M3.91478 6.49373C3.93013 6.33709 3.9535 6.18205 3.98447 6.02922L4.88007 6.88004C4.70581 8.4728 4.3511 10.3204 3.63781 12H8H10.2695L11.3221 13H9C9 13.5523 8.55228 14 8 14C7.44772 14 7 13.5523 7 13H3.15316C2.65011 13 2.33624 12.4401 2.54978 11.9847C3.36501 10.2458 3.74527 8.22333 3.91478 6.49373ZM11.0899 6.59127C11.1632 7.3385 11.2753 8.15011 11.4459 8.97965L12.7993 10.2654C12.4152 8.99404 12.201 7.67552 12.0852 6.49373C11.8747 4.34633 10.1577 2.5 7.99997 2.5C7.07905 2.5 6.23839 2.83634 5.56089 3.38888L6.29499 4.08627C6.79114 3.71633 7.38092 3.5 7.99997 3.5C9.55212 3.5 10.9203 4.85997 11.0899 6.59127ZM3.84437 3.1375C3.64417 2.94731 3.32769 2.95542 3.1375 3.15563C2.94731 3.35583 2.95542 3.67231 3.15563 3.8625L13.1556 13.3625C13.3558 13.5527 13.6723 13.5446 13.8625 13.3444C14.0527 13.1442 14.0446 12.8277 13.8444 12.6375L3.84437 3.1375Z" fill="#0F0F0F" fill-opacity="0.55"/>
</svg>
