<svg width="16" height="16" viewBox="0 0 16 16" fill="none" xmlns="http://www.w3.org/2000/svg">
<path fill-rule="evenodd" clip-rule="evenodd" d="M3.25 3C3.25 2.58579 3.58579 2.25 4 2.25H12C12.4142 2.25 12.75 2.58579 12.75 3C12.75 3.41421 12.4142 3.75 12 3.75H4C3.58579 3.75 3.25 3.41421 3.25 3ZM8.28709 4.80691C8.37555 4.84351 8.45842 4.89776 8.53033 4.96967L12.5303 8.96967C12.8232 9.26256 12.8232 9.73744 12.5303 10.0303C12.2374 10.3232 11.7626 10.3232 11.4697 10.0303L8.75 7.31066V14C8.75 14.4142 8.41421 14.75 8 14.75C7.58579 14.75 7.25 14.4142 7.25 14V7.31066L4.53033 10.0303C4.23744 10.3232 3.76256 10.3232 3.46967 10.0303C3.17678 9.73744 3.17678 9.26256 3.46967 8.96967L7.46967 4.96967C7.61554 4.8238 7.80656 4.75057 7.99775 4.75C7.9985 4.75 7.99925 4.75 8 4.75C8.00075 4.75 8.0015 4.75 8.00225 4.75C8.10312 4.7503 8.19931 4.77051 8.28709 4.80691Z" fill="#0F0F0F" fill-opacity="0.55"/>
</svg>
