<svg width="18" height="18" viewBox="0 0 18 18" fill="none" xmlns="http://www.w3.org/2000/svg">
<path fill-rule="evenodd" clip-rule="evenodd" d="M14.4 0C16.3882 0 18 1.61178 18 3.6V14.4C18 16.3882 16.3882 18 14.4 18H3.6C1.61178 18 0 16.3882 0 14.4V3.6C0 1.61177 1.61178 0 3.6 0H14.4ZM13.7649 13.8132V13.7619H13.7026V11.3265H13.6714C13.5157 10.5575 12.706 9.89097 11.5538 9.4808L10.3393 8.9681L10.3081 8.48103C10.7752 8.12214 11.1178 7.5838 11.2424 6.96855H11.2735C11.5849 6.96855 11.8652 6.68656 11.8652 6.3533C11.8652 6.04568 11.6472 5.78933 11.3669 5.73806C11.3669 5.73806 12.0209 3.99486 10.6818 3.48216C10.495 1.94404 7.25621 3.1489 7.25621 3.1489C5.57455 3.86669 6.38424 5.78933 6.38424 5.78933C6.16624 5.89187 6.04168 6.09695 6.04168 6.3533C6.04168 6.68656 6.29081 6.94291 6.60223 6.96855C6.75794 7.6607 7.16278 8.25031 7.72334 8.6092L7.6922 9.07064L6.38424 9.4808C5.23199 9.89097 4.45344 10.5575 4.26659 11.3265H4.23545V13.8132C4.23545 14.6335 6.38424 15.3 9.00015 15.3C11.6472 15.3 13.7649 14.6335 13.7649 13.8132Z" fill="#A2A9B2"/>
</svg>
