<svg width="20" height="20" viewBox="0 0 20 20" fill="none" xmlns="http://www.w3.org/2000/svg">
<rect width="20" height="20" rx="2" fill="white"/>
<path fill-rule="evenodd" clip-rule="evenodd" d="M4.58357 5.72221H15.4167C15.6161 5.72221 15.7778 5.88388 15.7778 6.08331V13.8759L11.2264 10.2185C11.0864 10.106 10.8849 10.1135 10.7537 10.2361L9.11396 11.7679L7.22934 10.2208C7.08787 10.1047 6.88188 10.1128 6.74994 10.2397L4.22247 12.6699V6.08331C4.22247 5.88388 4.38414 5.72221 4.58357 5.72221ZM11.018 10.9775L15.7778 14.8024V14.9165C15.7778 15.1159 15.6161 15.2776 15.4167 15.2776H13.3893L9.67707 12.2302L11.018 10.9775ZM3.50026 13.3649V14.9165C3.50026 15.5148 3.98528 15.9998 4.58357 15.9998H15.4167C16.015 15.9998 16.5 15.5148 16.5 14.9165V6.08331C16.5 5.48502 16.015 5 15.4167 5H4.58357C3.98528 5 3.50026 5.48501 3.50026 6.08331V13.3643L3.5 13.3646L3.50026 13.3649ZM4.22247 13.6718L7.01916 10.9827L12.2511 15.2776H4.58357C4.38414 15.2776 4.22247 15.1159 4.22247 14.9165V13.6718ZM12.0001 8.24998C12.0001 8.94016 12.5599 9.49995 13.2501 9.49995C13.9403 9.49995 14.5001 8.94016 14.5001 8.24998C14.5001 7.55979 13.9403 7 13.2501 7C12.5599 7 12.0001 7.55979 12.0001 8.24998Z" fill="#A2A9B2"/>
</svg>
