<svg width="20" height="20" viewBox="0 0 20 20" fill="none" xmlns="http://www.w3.org/2000/svg">
<rect width="20" height="20" rx="2" fill="white"/>
<path fill-rule="evenodd" clip-rule="evenodd" d="M4.53125 5.3125C4.53125 4.23382 5.40569 3.35938 6.48437 3.35938H13.3628C14.4415 3.35938 15.3159 4.23382 15.3159 5.3125V8.59876C15.3159 8.8145 15.141 8.98939 14.9253 8.98939C14.7096 8.98939 14.5347 8.8145 14.5347 8.59876V5.3125C14.5347 4.66529 14.01 4.14062 13.3628 4.14062H6.48437C5.83717 4.14062 5.3125 4.66529 5.3125 5.3125V14.4994C5.3125 15.1466 5.83717 15.6713 6.48438 15.6713H13.2324C13.4481 15.6713 13.623 15.8462 13.623 16.0619C13.623 16.2776 13.4481 16.4525 13.2324 16.4525H6.48438C5.40569 16.4525 4.53125 15.5781 4.53125 14.4994V5.3125ZM14.7714 9.66922C14.8842 9.66922 14.9858 9.71703 15.0571 9.79349L17.3649 12.2551C17.5124 12.4125 17.5044 12.6597 17.347 12.8072C17.1897 12.9548 16.9424 12.9468 16.7949 12.7894L15.162 11.0477V14.9846C15.162 15.2003 14.9871 15.3752 14.7714 15.3752C14.5557 15.3752 14.3808 15.2003 14.3808 14.9846V11.0477L12.7479 12.7894C12.6003 12.9468 12.3531 12.9548 12.1957 12.8072C12.0384 12.6597 12.0304 12.4125 12.1779 12.2551L14.4857 9.79345C14.557 9.71701 14.6586 9.66922 14.7714 9.66922ZM6.61474 6.48437C6.39901 6.48437 6.22412 6.65926 6.22412 6.875C6.22412 7.09074 6.39901 7.26562 6.61474 7.26562H12.7707C12.9864 7.26562 13.1613 7.09074 13.1613 6.875C13.1613 6.65926 12.9864 6.48437 12.7707 6.48437H6.61474ZM6.22412 10C6.22412 9.78426 6.39901 9.60937 6.61474 9.60937H10.521C10.7367 9.60937 10.9116 9.78426 10.9116 10C10.9116 10.2157 10.7367 10.3906 10.521 10.3906H6.61474C6.39901 10.3906 6.22412 10.2157 6.22412 10ZM6.48438 12.7344C6.26864 12.7344 6.09375 12.9093 6.09375 13.125C6.09375 13.3407 6.26864 13.5156 6.48438 13.5156H10.3906C10.6064 13.5156 10.7812 13.3407 10.7812 13.125C10.7812 12.9093 10.6064 12.7344 10.3906 12.7344H6.48438Z" fill="#A2A9B2"/>
</svg>
