<svg width="26.08695652173913" height="24" viewBox="0 0 25 23" fill="none" xmlns="http://www.w3.org/2000/svg"><path d="M20.4879 11.7529L17.163 22.5315C17.1148 22.7424 17.2835 22.9767 17.5244 22.9767H24.1742C24.4151 22.9767 24.5838 22.7658 24.5356 22.5315L21.1866 11.7529C21.1144 11.4014 20.5602 11.4014 20.4879 11.7529zM2.08028 17.0953L.00824139 22.5549C-.0399457 22.7658.128709 22.9766.369645 22.9766H4.48963C4.73056 22.9766 4.89922 22.7658 4.85103 22.5549L2.77899 17.0953C2.70671 16.7204 2.17666 16.7204 2.08028 17.0953z" fill="#37E2E2"/><path d="M6.60993 6.43353L2.03217 22.5312C1.98398 22.742 2.15263 22.9764 2.39357 22.9764H11.5491C11.79 22.9764 11.9587 22.7655 11.9105 22.5312L7.33273 6.43353C7.23636 6.08205 6.7063 6.08205 6.60993 6.43353Z" fill="#1678FF"/><path d="M14.3198 0.281181L7.83869 22.5314C7.7905 22.7423 7.95915 22.9766 8.20009 22.9766H21.1383C21.3792 22.9766 21.5479 22.7657 21.4997 22.5314L15.0185 0.281181C14.9222 -0.0937271 14.3921 -0.0937271 14.3198 0.281181Z" fill="#1678FF"/><path d="M10.0314 9.10442L6.08002 22.5543C6.03183 22.7652 6.20049 22.9995 6.44142 22.9995H14.3441C14.585 22.9995 14.7537 22.7886 14.7055 22.5543L10.7301 9.10442C10.6578 8.72952 10.1036 8.72952 10.0314 9.10442Z" fill="#37E2E2"/></svg>